<svg width="126" height="32" viewBox="0 0 126 32" fill="none" xmlns="http://www.w3.org/2000/svg">
<path d="M62.984 8.2L57.776 25H54.896L50.984 14.536L47.12 25H44.24L38.96 8.2H41.792L45.752 21.328L49.664 10.936H52.328L56.24 21.352L60.152 8.2H62.984ZM74.1971 19.936H65.4851C65.5331 20.768 65.8051 21.416 66.3011 21.88C66.7971 22.328 67.4131 22.6 68.1491 22.696C68.9011 22.792 69.6771 22.728 70.4771 22.504C71.2931 22.264 72.0291 21.864 72.6851 21.304L74.0771 23.248C73.2451 23.952 72.3811 24.456 71.4851 24.76C70.6051 25.064 69.7251 25.216 68.8451 25.216C66.8291 25.232 65.3011 24.672 64.2611 23.536C63.2371 22.384 62.7251 20.768 62.7251 18.688C62.7251 16.912 63.2371 15.496 64.2611 14.44C65.3011 13.384 66.7331 12.856 68.5571 12.856C71.1491 12.872 72.8691 13.888 73.7171 15.904C73.9571 16.464 74.1091 17.072 74.1731 17.728C74.2371 18.384 74.2451 19.12 74.1971 19.936ZM68.7731 15.256C67.7491 15.256 66.9411 15.528 66.3491 16.072C65.7731 16.6 65.4851 17.264 65.4851 18.064H71.9651C71.9651 17.28 71.6851 16.616 71.1251 16.072C70.5811 15.528 69.7971 15.256 68.7731 15.256ZM87.0016 18.808C87.0016 19.752 86.8736 20.64 86.6176 21.472C86.3616 22.288 85.9696 22.992 85.4416 23.584C84.9296 24.176 84.2736 24.6 83.4736 24.856C82.9936 25.016 82.4576 25.08 81.8656 25.048C81.2896 25.016 80.7376 24.912 80.2096 24.736C79.6976 24.544 79.2976 24.296 79.0096 23.992V25H76.4656V8.2H79.0096V13.432C79.4096 13.192 79.8576 13.032 80.3536 12.952C80.8656 12.872 81.3136 12.832 81.6976 12.832C82.8336 12.832 83.7936 13.104 84.5776 13.648C85.3776 14.176 85.9776 14.888 86.3776 15.784C86.7936 16.68 87.0016 17.688 87.0016 18.808ZM84.4096 18.808C84.4096 17.816 84.1536 17.04 83.6416 16.48C83.1456 15.904 82.4816 15.56 81.6496 15.448C80.8336 15.336 79.9536 15.472 79.0096 15.856V21.856C79.9376 22.432 80.8096 22.688 81.6256 22.624C82.4576 22.544 83.1296 22.176 83.6416 21.52C84.1536 20.864 84.4096 19.96 84.4096 18.808ZM88.46 23.44L89.948 21.832C90.876 22.584 91.796 22.96 92.708 22.96C92.964 22.96 93.212 22.928 93.452 22.864C93.692 22.8 93.9 22.688 94.076 22.528C94.3 22.352 94.444 22.12 94.508 21.832C94.572 21.544 94.572 21.296 94.508 21.088C94.428 20.768 94.22 20.52 93.884 20.344C93.548 20.168 93.14 20.008 92.66 19.864C92.196 19.72 91.716 19.552 91.22 19.36C90.74 19.168 90.3 18.912 89.9 18.592C89.244 18.032 88.852 17.432 88.724 16.792C88.596 16.136 88.684 15.52 88.988 14.944C89.292 14.352 89.756 13.872 90.38 13.504C91.02 13.12 91.788 12.912 92.684 12.88C93.516 12.864 94.284 13 94.988 13.288C95.692 13.56 96.252 13.92 96.668 14.368L95.036 15.856C94.748 15.6 94.396 15.416 93.98 15.304C93.564 15.176 93.172 15.112 92.804 15.112C92.388 15.112 92.028 15.2 91.724 15.376C91.42 15.552 91.26 15.848 91.244 16.264C91.244 16.664 91.428 16.976 91.796 17.2C92.164 17.424 92.628 17.624 93.188 17.8C93.764 17.96 94.34 18.176 94.916 18.448C95.508 18.72 95.988 19.12 96.356 19.648C96.724 20.16 96.884 20.824 96.836 21.64C96.804 22.408 96.588 23.056 96.188 23.584C95.804 24.112 95.292 24.512 94.652 24.784C94.028 25.04 93.348 25.168 92.612 25.168C91.876 25.168 91.14 25.032 90.404 24.76C89.684 24.472 89.036 24.032 88.46 23.44ZM100.597 11.536C100.165 11.536 99.7885 11.384 99.4685 11.08C99.1645 10.76 99.0125 10.376 99.0125 9.928C99.0125 9.496 99.1645 9.128 99.4685 8.824C99.7885 8.52 100.165 8.368 100.597 8.368C101.045 8.368 101.421 8.52 101.725 8.824C102.029 9.128 102.181 9.496 102.181 9.928C102.181 10.376 102.029 10.76 101.725 11.08C101.421 11.384 101.045 11.536 100.597 11.536ZM101.797 25H99.4205V13H101.797V25ZM106.223 19.648V15.376H104.351V13H106.223V8.2H108.743V13H110.687V15.376H108.743V19.648C108.743 20.368 108.783 20.928 108.863 21.328C108.959 21.728 109.087 22.008 109.247 22.168C109.423 22.328 109.623 22.424 109.847 22.456C110.087 22.488 110.343 22.512 110.615 22.528H111.095V25.048H110.687C109.839 25.048 109.127 24.984 108.551 24.856C107.991 24.728 107.535 24.48 107.183 24.112C106.847 23.728 106.599 23.184 106.439 22.48C106.295 21.76 106.223 20.816 106.223 19.648ZM124.447 19.936H115.735C115.783 20.768 116.055 21.416 116.551 21.88C117.047 22.328 117.663 22.6 118.399 22.696C119.151 22.792 119.927 22.728 120.727 22.504C121.543 22.264 122.279 21.864 122.935 21.304L124.327 23.248C123.495 23.952 122.631 24.456 121.735 24.76C120.855 25.064 119.975 25.216 119.095 25.216C117.079 25.232 115.551 24.672 114.511 23.536C113.487 22.384 112.975 20.768 112.975 18.688C112.975 16.912 113.487 15.496 114.511 14.44C115.551 13.384 116.983 12.856 118.807 12.856C121.399 12.872 123.119 13.888 123.967 15.904C124.207 16.464 124.359 17.072 124.423 17.728C124.487 18.384 124.495 19.12 124.447 19.936ZM119.023 15.256C117.999 15.256 117.191 15.528 116.599 16.072C116.023 16.6 115.735 17.264 115.735 18.064H122.215C122.215 17.28 121.935 16.616 121.375 16.072C120.831 15.528 120.047 15.256 119.023 15.256Z" fill="white"/>
<path d="M24.9 3.89999L16 19.4L7.1 3.89999H2L16 28.2L30 3.89999H24.9Z" fill="white"/>
<path d="M16 9.49999L12.8 3.89999H8.09998L16 17.5L23.9 3.89999H19.3L16 9.49999Z" fill="white"/>
</svg>
