<svg width="26" height="26" viewBox="0 0 26 26" fill="none" xmlns="http://www.w3.org/2000/svg">
<path d="M0.966553 12.9362C0.966553 6.2467 6.38647 0.826782 13.0759 0.826782C19.7654 0.826782 25.1853 6.2467 25.1853 12.9362C25.1853 19.6256 19.7654 25.0455 13.0759 25.0455C6.38647 25.0455 0.966553 19.6256 0.966553 12.9362ZM12.2458 7.37463L5.62964 13.9908C5.17065 14.4498 5.17065 15.192 5.62964 15.6461L6.45972 16.4762C6.9187 16.9352 7.66089 16.9352 8.11499 16.4762L13.0759 11.5153L18.0369 16.4762C18.4958 16.9352 19.238 16.9352 19.6921 16.4762L20.5222 15.6461C20.9812 15.1871 20.9812 14.4449 20.5222 13.9908L13.906 7.37463C13.447 6.91565 12.7048 6.91565 12.2458 7.37463Z" fill="white"/>
</svg>
