<svg width="684" height="678" viewBox="0 0 684 678" fill="none" xmlns="http://www.w3.org/2000/svg">
<rect x="292" width="100" height="128" fill="#D9D9D9"/>
<path d="M328.48 147H326.28L319.58 134.82V146.98H318V132.98H320.32L326.9 145.02V132.98H328.48V147ZM333.56 147.1C332.627 147.073 331.847 146.813 331.22 146.32C330.594 145.813 330.28 145.08 330.28 144.12C330.28 143.12 330.574 142.34 331.16 141.78C331.747 141.207 332.547 140.84 333.56 140.68C334.574 140.52 335.707 140.553 336.96 140.78V140.06C336.96 139.593 336.814 139.227 336.52 138.96C336.227 138.68 335.847 138.493 335.38 138.4C334.927 138.307 334.447 138.3 333.94 138.38C333.447 138.447 332.98 138.6 332.54 138.84C332.1 139.067 331.76 139.367 331.52 139.74L330.54 138.7C330.954 138.193 331.454 137.8 332.04 137.52C332.64 137.24 333.26 137.06 333.9 136.98C334.54 136.9 335.16 136.92 335.76 137.04C336.36 137.16 336.887 137.38 337.34 137.7C337.78 137.967 338.08 138.313 338.24 138.74C338.414 139.153 338.514 139.633 338.54 140.18C338.567 140.727 338.58 141.313 338.58 141.94V147H336.98V146.06C336.487 146.42 335.94 146.687 335.34 146.86C334.74 147.033 334.147 147.113 333.56 147.1ZM336.94 144.64V142.02C335.354 141.82 334.094 141.873 333.16 142.18C332.227 142.487 331.76 143.127 331.76 144.1C331.76 144.527 331.88 144.86 332.12 145.1C332.374 145.34 332.694 145.5 333.08 145.58C333.48 145.66 333.914 145.673 334.38 145.62C334.847 145.567 335.307 145.453 335.76 145.28C336.214 145.107 336.607 144.893 336.94 144.64ZM355.798 147H354.238V141.1C354.238 140.193 353.998 139.52 353.518 139.08C353.051 138.64 352.445 138.42 351.698 138.42C350.925 138.42 350.285 138.64 349.778 139.08C349.271 139.52 349.018 140.193 349.018 141.1V147H347.478V141.1C347.478 140.167 347.225 139.487 346.718 139.06C346.211 138.633 345.578 138.42 344.818 138.42C344.418 138.42 344.011 138.513 343.598 138.7C343.185 138.887 342.838 139.18 342.558 139.58C342.291 139.967 342.158 140.473 342.158 141.1V147H340.578V137H342.158V138.02C342.491 137.647 342.891 137.367 343.358 137.18C343.825 136.993 344.311 136.893 344.818 136.88C345.471 136.88 346.111 137.013 346.738 137.28C347.378 137.533 347.911 137.94 348.338 138.5C348.698 137.953 349.191 137.553 349.818 137.3C350.445 137.033 351.098 136.9 351.778 136.9C352.485 136.9 353.145 137.067 353.758 137.4C354.371 137.72 354.865 138.193 355.238 138.82C355.611 139.447 355.798 140.207 355.798 141.1V147ZM360.67 147.1C359.737 147.073 358.957 146.813 358.33 146.32C357.703 145.813 357.39 145.08 357.39 144.12C357.39 143.12 357.683 142.34 358.27 141.78C358.857 141.207 359.657 140.84 360.67 140.68C361.683 140.52 362.817 140.553 364.07 140.78V140.06C364.07 139.593 363.923 139.227 363.63 138.96C363.337 138.68 362.957 138.493 362.49 138.4C362.037 138.307 361.557 138.3 361.05 138.38C360.557 138.447 360.09 138.6 359.65 138.84C359.21 139.067 358.87 139.367 358.63 139.74L357.65 138.7C358.063 138.193 358.563 137.8 359.15 137.52C359.75 137.24 360.37 137.06 361.01 136.98C361.65 136.9 362.27 136.92 362.87 137.04C363.47 137.16 363.997 137.38 364.45 137.7C364.89 137.967 365.19 138.313 365.35 138.74C365.523 139.153 365.623 139.633 365.65 140.18C365.677 140.727 365.69 141.313 365.69 141.94V147H364.09V146.06C363.597 146.42 363.05 146.687 362.45 146.86C361.85 147.033 361.257 147.113 360.67 147.1ZM364.05 144.64V142.02C362.463 141.82 361.203 141.873 360.27 142.18C359.337 142.487 358.87 143.127 358.87 144.1C358.87 144.527 358.99 144.86 359.23 145.1C359.483 145.34 359.803 145.5 360.19 145.58C360.59 145.66 361.023 145.673 361.49 145.62C361.957 145.567 362.417 145.453 362.87 145.28C363.323 145.107 363.717 144.893 364.05 144.64Z" fill="black"/>
<rect x="122" y="153" width="100" height="128" fill="#D9D9D9"/>
<path d="M158.48 300H156.28L149.58 287.82V299.98H148V285.98H150.32L156.9 298.02V285.98H158.48V300ZM163.56 300.1C162.627 300.073 161.847 299.813 161.22 299.32C160.594 298.813 160.28 298.08 160.28 297.12C160.28 296.12 160.574 295.34 161.16 294.78C161.747 294.207 162.547 293.84 163.56 293.68C164.574 293.52 165.707 293.553 166.96 293.78V293.06C166.96 292.593 166.814 292.227 166.52 291.96C166.227 291.68 165.847 291.493 165.38 291.4C164.927 291.307 164.447 291.3 163.94 291.38C163.447 291.447 162.98 291.6 162.54 291.84C162.1 292.067 161.76 292.367 161.52 292.74L160.54 291.7C160.954 291.193 161.454 290.8 162.04 290.52C162.64 290.24 163.26 290.06 163.9 289.98C164.54 289.9 165.16 289.92 165.76 290.04C166.36 290.16 166.887 290.38 167.34 290.7C167.78 290.967 168.08 291.313 168.24 291.74C168.414 292.153 168.514 292.633 168.54 293.18C168.567 293.727 168.58 294.313 168.58 294.94V300H166.98V299.06C166.487 299.42 165.94 299.687 165.34 299.86C164.74 300.033 164.147 300.113 163.56 300.1ZM166.94 297.64V295.02C165.354 294.82 164.094 294.873 163.16 295.18C162.227 295.487 161.76 296.127 161.76 297.1C161.76 297.527 161.88 297.86 162.12 298.1C162.374 298.34 162.694 298.5 163.08 298.58C163.48 298.66 163.914 298.673 164.38 298.62C164.847 298.567 165.307 298.453 165.76 298.28C166.214 298.107 166.607 297.893 166.94 297.64ZM185.798 300H184.238V294.1C184.238 293.193 183.998 292.52 183.518 292.08C183.051 291.64 182.445 291.42 181.698 291.42C180.925 291.42 180.285 291.64 179.778 292.08C179.271 292.52 179.018 293.193 179.018 294.1V300H177.478V294.1C177.478 293.167 177.225 292.487 176.718 292.06C176.211 291.633 175.578 291.42 174.818 291.42C174.418 291.42 174.011 291.513 173.598 291.7C173.185 291.887 172.838 292.18 172.558 292.58C172.291 292.967 172.158 293.473 172.158 294.1V300H170.578V290H172.158V291.02C172.491 290.647 172.891 290.367 173.358 290.18C173.825 289.993 174.311 289.893 174.818 289.88C175.471 289.88 176.111 290.013 176.738 290.28C177.378 290.533 177.911 290.94 178.338 291.5C178.698 290.953 179.191 290.553 179.818 290.3C180.445 290.033 181.098 289.9 181.778 289.9C182.485 289.9 183.145 290.067 183.758 290.4C184.371 290.72 184.865 291.193 185.238 291.82C185.611 292.447 185.798 293.207 185.798 294.1V300ZM190.67 300.1C189.737 300.073 188.957 299.813 188.33 299.32C187.703 298.813 187.39 298.08 187.39 297.12C187.39 296.12 187.683 295.34 188.27 294.78C188.857 294.207 189.657 293.84 190.67 293.68C191.683 293.52 192.817 293.553 194.07 293.78V293.06C194.07 292.593 193.923 292.227 193.63 291.96C193.337 291.68 192.957 291.493 192.49 291.4C192.037 291.307 191.557 291.3 191.05 291.38C190.557 291.447 190.09 291.6 189.65 291.84C189.21 292.067 188.87 292.367 188.63 292.74L187.65 291.7C188.063 291.193 188.563 290.8 189.15 290.52C189.75 290.24 190.37 290.06 191.01 289.98C191.65 289.9 192.27 289.92 192.87 290.04C193.47 290.16 193.997 290.38 194.45 290.7C194.89 290.967 195.19 291.313 195.35 291.74C195.523 292.153 195.623 292.633 195.65 293.18C195.677 293.727 195.69 294.313 195.69 294.94V300H194.09V299.06C193.597 299.42 193.05 299.687 192.45 299.86C191.85 300.033 191.257 300.113 190.67 300.1ZM194.05 297.64V295.02C192.463 294.82 191.203 294.873 190.27 295.18C189.337 295.487 188.87 296.127 188.87 297.1C188.87 297.527 188.99 297.86 189.23 298.1C189.483 298.34 189.803 298.5 190.19 298.58C190.59 298.66 191.023 298.673 191.49 298.62C191.957 298.567 192.417 298.453 192.87 298.28C193.323 298.107 193.717 297.893 194.05 297.64Z" fill="black"/>
<rect x="122" y="340" width="100" height="128" fill="#D9D9D9"/>
<path d="M158.48 487H156.28L149.58 474.82V486.98H148V472.98H150.32L156.9 485.02V472.98H158.48V487ZM163.56 487.1C162.627 487.073 161.847 486.813 161.22 486.32C160.594 485.813 160.28 485.08 160.28 484.12C160.28 483.12 160.574 482.34 161.16 481.78C161.747 481.207 162.547 480.84 163.56 480.68C164.574 480.52 165.707 480.553 166.96 480.78V480.06C166.96 479.593 166.814 479.227 166.52 478.96C166.227 478.68 165.847 478.493 165.38 478.4C164.927 478.307 164.447 478.3 163.94 478.38C163.447 478.447 162.98 478.6 162.54 478.84C162.1 479.067 161.76 479.367 161.52 479.74L160.54 478.7C160.954 478.193 161.454 477.8 162.04 477.52C162.64 477.24 163.26 477.06 163.9 476.98C164.54 476.9 165.16 476.92 165.76 477.04C166.36 477.16 166.887 477.38 167.34 477.7C167.78 477.967 168.08 478.313 168.24 478.74C168.414 479.153 168.514 479.633 168.54 480.18C168.567 480.727 168.58 481.313 168.58 481.94V487H166.98V486.06C166.487 486.42 165.94 486.687 165.34 486.86C164.74 487.033 164.147 487.113 163.56 487.1ZM166.94 484.64V482.02C165.354 481.82 164.094 481.873 163.16 482.18C162.227 482.487 161.76 483.127 161.76 484.1C161.76 484.527 161.88 484.86 162.12 485.1C162.374 485.34 162.694 485.5 163.08 485.58C163.48 485.66 163.914 485.673 164.38 485.62C164.847 485.567 165.307 485.453 165.76 485.28C166.214 485.107 166.607 484.893 166.94 484.64ZM185.798 487H184.238V481.1C184.238 480.193 183.998 479.52 183.518 479.08C183.051 478.64 182.445 478.42 181.698 478.42C180.925 478.42 180.285 478.64 179.778 479.08C179.271 479.52 179.018 480.193 179.018 481.1V487H177.478V481.1C177.478 480.167 177.225 479.487 176.718 479.06C176.211 478.633 175.578 478.42 174.818 478.42C174.418 478.42 174.011 478.513 173.598 478.7C173.185 478.887 172.838 479.18 172.558 479.58C172.291 479.967 172.158 480.473 172.158 481.1V487H170.578V477H172.158V478.02C172.491 477.647 172.891 477.367 173.358 477.18C173.825 476.993 174.311 476.893 174.818 476.88C175.471 476.88 176.111 477.013 176.738 477.28C177.378 477.533 177.911 477.94 178.338 478.5C178.698 477.953 179.191 477.553 179.818 477.3C180.445 477.033 181.098 476.9 181.778 476.9C182.485 476.9 183.145 477.067 183.758 477.4C184.371 477.72 184.865 478.193 185.238 478.82C185.611 479.447 185.798 480.207 185.798 481.1V487ZM190.67 487.1C189.737 487.073 188.957 486.813 188.33 486.32C187.703 485.813 187.39 485.08 187.39 484.12C187.39 483.12 187.683 482.34 188.27 481.78C188.857 481.207 189.657 480.84 190.67 480.68C191.683 480.52 192.817 480.553 194.07 480.78V480.06C194.07 479.593 193.923 479.227 193.63 478.96C193.337 478.68 192.957 478.493 192.49 478.4C192.037 478.307 191.557 478.3 191.05 478.38C190.557 478.447 190.09 478.6 189.65 478.84C189.21 479.067 188.87 479.367 188.63 479.74L187.65 478.7C188.063 478.193 188.563 477.8 189.15 477.52C189.75 477.24 190.37 477.06 191.01 476.98C191.65 476.9 192.27 476.92 192.87 477.04C193.47 477.16 193.997 477.38 194.45 477.7C194.89 477.967 195.19 478.313 195.35 478.74C195.523 479.153 195.623 479.633 195.65 480.18C195.677 480.727 195.69 481.313 195.69 481.94V487H194.09V486.06C193.597 486.42 193.05 486.687 192.45 486.86C191.85 487.033 191.257 487.113 190.67 487.1ZM194.05 484.64V482.02C192.463 481.82 191.203 481.873 190.27 482.18C189.337 482.487 188.87 483.127 188.87 484.1C188.87 484.527 188.99 484.86 189.23 485.1C189.483 485.34 189.803 485.5 190.19 485.58C190.59 485.66 191.023 485.673 191.49 485.62C191.957 485.567 192.417 485.453 192.87 485.28C193.323 485.107 193.717 484.893 194.05 484.64Z" fill="black"/>
<rect x="122" y="527" width="100" height="128" fill="#D9D9D9"/>
<path d="M158.48 674H156.28L149.58 661.82V673.98H148V659.98H150.32L156.9 672.02V659.98H158.48V674ZM163.56 674.1C162.627 674.073 161.847 673.813 161.22 673.32C160.594 672.813 160.28 672.08 160.28 671.12C160.28 670.12 160.574 669.34 161.16 668.78C161.747 668.207 162.547 667.84 163.56 667.68C164.574 667.52 165.707 667.553 166.96 667.78V667.06C166.96 666.593 166.814 666.227 166.52 665.96C166.227 665.68 165.847 665.493 165.38 665.4C164.927 665.307 164.447 665.3 163.94 665.38C163.447 665.447 162.98 665.6 162.54 665.84C162.1 666.067 161.76 666.367 161.52 666.74L160.54 665.7C160.954 665.193 161.454 664.8 162.04 664.52C162.64 664.24 163.26 664.06 163.9 663.98C164.54 663.9 165.16 663.92 165.76 664.04C166.36 664.16 166.887 664.38 167.34 664.7C167.78 664.967 168.08 665.313 168.24 665.74C168.414 666.153 168.514 666.633 168.54 667.18C168.567 667.727 168.58 668.313 168.58 668.94V674H166.98V673.06C166.487 673.42 165.94 673.687 165.34 673.86C164.74 674.033 164.147 674.113 163.56 674.1ZM166.94 671.64V669.02C165.354 668.82 164.094 668.873 163.16 669.18C162.227 669.487 161.76 670.127 161.76 671.1C161.76 671.527 161.88 671.86 162.12 672.1C162.374 672.34 162.694 672.5 163.08 672.58C163.48 672.66 163.914 672.673 164.38 672.62C164.847 672.567 165.307 672.453 165.76 672.28C166.214 672.107 166.607 671.893 166.94 671.64ZM185.798 674H184.238V668.1C184.238 667.193 183.998 666.52 183.518 666.08C183.051 665.64 182.445 665.42 181.698 665.42C180.925 665.42 180.285 665.64 179.778 666.08C179.271 666.52 179.018 667.193 179.018 668.1V674H177.478V668.1C177.478 667.167 177.225 666.487 176.718 666.06C176.211 665.633 175.578 665.42 174.818 665.42C174.418 665.42 174.011 665.513 173.598 665.7C173.185 665.887 172.838 666.18 172.558 666.58C172.291 666.967 172.158 667.473 172.158 668.1V674H170.578V664H172.158V665.02C172.491 664.647 172.891 664.367 173.358 664.18C173.825 663.993 174.311 663.893 174.818 663.88C175.471 663.88 176.111 664.013 176.738 664.28C177.378 664.533 177.911 664.94 178.338 665.5C178.698 664.953 179.191 664.553 179.818 664.3C180.445 664.033 181.098 663.9 181.778 663.9C182.485 663.9 183.145 664.067 183.758 664.4C184.371 664.72 184.865 665.193 185.238 665.82C185.611 666.447 185.798 667.207 185.798 668.1V674ZM190.67 674.1C189.737 674.073 188.957 673.813 188.33 673.32C187.703 672.813 187.39 672.08 187.39 671.12C187.39 670.12 187.683 669.34 188.27 668.78C188.857 668.207 189.657 667.84 190.67 667.68C191.683 667.52 192.817 667.553 194.07 667.78V667.06C194.07 666.593 193.923 666.227 193.63 665.96C193.337 665.68 192.957 665.493 192.49 665.4C192.037 665.307 191.557 665.3 191.05 665.38C190.557 665.447 190.09 665.6 189.65 665.84C189.21 666.067 188.87 666.367 188.63 666.74L187.65 665.7C188.063 665.193 188.563 664.8 189.15 664.52C189.75 664.24 190.37 664.06 191.01 663.98C191.65 663.9 192.27 663.92 192.87 664.04C193.47 664.16 193.997 664.38 194.45 664.7C194.89 664.967 195.19 665.313 195.35 665.74C195.523 666.153 195.623 666.633 195.65 667.18C195.677 667.727 195.69 668.313 195.69 668.94V674H194.09V673.06C193.597 673.42 193.05 673.687 192.45 673.86C191.85 674.033 191.257 674.113 190.67 674.1ZM194.05 671.64V669.02C192.463 668.82 191.203 668.873 190.27 669.18C189.337 669.487 188.87 670.127 188.87 671.1C188.87 671.527 188.99 671.86 189.23 672.1C189.483 672.34 189.803 672.5 190.19 672.58C190.59 672.66 191.023 672.673 191.49 672.62C191.957 672.567 192.417 672.453 192.87 672.28C193.323 672.107 193.717 671.893 194.05 671.64Z" fill="black"/>
<rect x="462" y="153" width="100" height="128" fill="#D9D9D9"/>
<path d="M498.48 300H496.28L489.58 287.82V299.98H488V285.98H490.32L496.9 298.02V285.98H498.48V300ZM503.56 300.1C502.627 300.073 501.847 299.813 501.22 299.32C500.594 298.813 500.28 298.08 500.28 297.12C500.28 296.12 500.574 295.34 501.16 294.78C501.747 294.207 502.547 293.84 503.56 293.68C504.574 293.52 505.707 293.553 506.96 293.78V293.06C506.96 292.593 506.814 292.227 506.52 291.96C506.227 291.68 505.847 291.493 505.38 291.4C504.927 291.307 504.447 291.3 503.94 291.38C503.447 291.447 502.98 291.6 502.54 291.84C502.1 292.067 501.76 292.367 501.52 292.74L500.54 291.7C500.954 291.193 501.454 290.8 502.04 290.52C502.64 290.24 503.26 290.06 503.9 289.98C504.54 289.9 505.16 289.92 505.76 290.04C506.36 290.16 506.887 290.38 507.34 290.7C507.78 290.967 508.08 291.313 508.24 291.74C508.414 292.153 508.514 292.633 508.54 293.18C508.567 293.727 508.58 294.313 508.58 294.94V300H506.98V299.06C506.487 299.42 505.94 299.687 505.34 299.86C504.74 300.033 504.147 300.113 503.56 300.1ZM506.94 297.64V295.02C505.354 294.82 504.094 294.873 503.16 295.18C502.227 295.487 501.76 296.127 501.76 297.1C501.76 297.527 501.88 297.86 502.12 298.1C502.374 298.34 502.694 298.5 503.08 298.58C503.48 298.66 503.914 298.673 504.38 298.62C504.847 298.567 505.307 298.453 505.76 298.28C506.214 298.107 506.607 297.893 506.94 297.64ZM525.798 300H524.238V294.1C524.238 293.193 523.998 292.52 523.518 292.08C523.051 291.64 522.445 291.42 521.698 291.42C520.925 291.42 520.285 291.64 519.778 292.08C519.271 292.52 519.018 293.193 519.018 294.1V300H517.478V294.1C517.478 293.167 517.225 292.487 516.718 292.06C516.211 291.633 515.578 291.42 514.818 291.42C514.418 291.42 514.011 291.513 513.598 291.7C513.185 291.887 512.838 292.18 512.558 292.58C512.291 292.967 512.158 293.473 512.158 294.1V300H510.578V290H512.158V291.02C512.491 290.647 512.891 290.367 513.358 290.18C513.825 289.993 514.311 289.893 514.818 289.88C515.471 289.88 516.111 290.013 516.738 290.28C517.378 290.533 517.911 290.94 518.338 291.5C518.698 290.953 519.191 290.553 519.818 290.3C520.445 290.033 521.098 289.9 521.778 289.9C522.485 289.9 523.145 290.067 523.758 290.4C524.371 290.72 524.865 291.193 525.238 291.82C525.611 292.447 525.798 293.207 525.798 294.1V300ZM530.67 300.1C529.737 300.073 528.957 299.813 528.33 299.32C527.703 298.813 527.39 298.08 527.39 297.12C527.39 296.12 527.683 295.34 528.27 294.78C528.857 294.207 529.657 293.84 530.67 293.68C531.683 293.52 532.817 293.553 534.07 293.78V293.06C534.07 292.593 533.923 292.227 533.63 291.96C533.337 291.68 532.957 291.493 532.49 291.4C532.037 291.307 531.557 291.3 531.05 291.38C530.557 291.447 530.09 291.6 529.65 291.84C529.21 292.067 528.87 292.367 528.63 292.74L527.65 291.7C528.063 291.193 528.563 290.8 529.15 290.52C529.75 290.24 530.37 290.06 531.01 289.98C531.65 289.9 532.27 289.92 532.87 290.04C533.47 290.16 533.997 290.38 534.45 290.7C534.89 290.967 535.19 291.313 535.35 291.74C535.523 292.153 535.623 292.633 535.65 293.18C535.677 293.727 535.69 294.313 535.69 294.94V300H534.09V299.06C533.597 299.42 533.05 299.687 532.45 299.86C531.85 300.033 531.257 300.113 530.67 300.1ZM534.05 297.64V295.02C532.463 294.82 531.203 294.873 530.27 295.18C529.337 295.487 528.87 296.127 528.87 297.1C528.87 297.527 528.99 297.86 529.23 298.1C529.483 298.34 529.803 298.5 530.19 298.58C530.59 298.66 531.023 298.673 531.49 298.62C531.957 298.567 532.417 298.453 532.87 298.28C533.323 298.107 533.717 297.893 534.05 297.64Z" fill="black"/>
<rect x="462" y="340" width="100" height="128" fill="#D9D9D9"/>
<path d="M498.48 487H496.28L489.58 474.82V486.98H488V472.98H490.32L496.9 485.02V472.98H498.48V487ZM503.56 487.1C502.627 487.073 501.847 486.813 501.22 486.32C500.594 485.813 500.28 485.08 500.28 484.12C500.28 483.12 500.574 482.34 501.16 481.78C501.747 481.207 502.547 480.84 503.56 480.68C504.574 480.52 505.707 480.553 506.96 480.78V480.06C506.96 479.593 506.814 479.227 506.52 478.96C506.227 478.68 505.847 478.493 505.38 478.4C504.927 478.307 504.447 478.3 503.94 478.38C503.447 478.447 502.98 478.6 502.54 478.84C502.1 479.067 501.76 479.367 501.52 479.74L500.54 478.7C500.954 478.193 501.454 477.8 502.04 477.52C502.64 477.24 503.26 477.06 503.9 476.98C504.54 476.9 505.16 476.92 505.76 477.04C506.36 477.16 506.887 477.38 507.34 477.7C507.78 477.967 508.08 478.313 508.24 478.74C508.414 479.153 508.514 479.633 508.54 480.18C508.567 480.727 508.58 481.313 508.58 481.94V487H506.98V486.06C506.487 486.42 505.94 486.687 505.34 486.86C504.74 487.033 504.147 487.113 503.56 487.1ZM506.94 484.64V482.02C505.354 481.82 504.094 481.873 503.16 482.18C502.227 482.487 501.76 483.127 501.76 484.1C501.76 484.527 501.88 484.86 502.12 485.1C502.374 485.34 502.694 485.5 503.08 485.58C503.48 485.66 503.914 485.673 504.38 485.62C504.847 485.567 505.307 485.453 505.76 485.28C506.214 485.107 506.607 484.893 506.94 484.64ZM525.798 487H524.238V481.1C524.238 480.193 523.998 479.52 523.518 479.08C523.051 478.64 522.445 478.42 521.698 478.42C520.925 478.42 520.285 478.64 519.778 479.08C519.271 479.52 519.018 480.193 519.018 481.1V487H517.478V481.1C517.478 480.167 517.225 479.487 516.718 479.06C516.211 478.633 515.578 478.42 514.818 478.42C514.418 478.42 514.011 478.513 513.598 478.7C513.185 478.887 512.838 479.18 512.558 479.58C512.291 479.967 512.158 480.473 512.158 481.1V487H510.578V477H512.158V478.02C512.491 477.647 512.891 477.367 513.358 477.18C513.825 476.993 514.311 476.893 514.818 476.88C515.471 476.88 516.111 477.013 516.738 477.28C517.378 477.533 517.911 477.94 518.338 478.5C518.698 477.953 519.191 477.553 519.818 477.3C520.445 477.033 521.098 476.9 521.778 476.9C522.485 476.9 523.145 477.067 523.758 477.4C524.371 477.72 524.865 478.193 525.238 478.82C525.611 479.447 525.798 480.207 525.798 481.1V487ZM530.67 487.1C529.737 487.073 528.957 486.813 528.33 486.32C527.703 485.813 527.39 485.08 527.39 484.12C527.39 483.12 527.683 482.34 528.27 481.78C528.857 481.207 529.657 480.84 530.67 480.68C531.683 480.52 532.817 480.553 534.07 480.78V480.06C534.07 479.593 533.923 479.227 533.63 478.96C533.337 478.68 532.957 478.493 532.49 478.4C532.037 478.307 531.557 478.3 531.05 478.38C530.557 478.447 530.09 478.6 529.65 478.84C529.21 479.067 528.87 479.367 528.63 479.74L527.65 478.7C528.063 478.193 528.563 477.8 529.15 477.52C529.75 477.24 530.37 477.06 531.01 476.98C531.65 476.9 532.27 476.92 532.87 477.04C533.47 477.16 533.997 477.38 534.45 477.7C534.89 477.967 535.19 478.313 535.35 478.74C535.523 479.153 535.623 479.633 535.65 480.18C535.677 480.727 535.69 481.313 535.69 481.94V487H534.09V486.06C533.597 486.42 533.05 486.687 532.45 486.86C531.85 487.033 531.257 487.113 530.67 487.1ZM534.05 484.64V482.02C532.463 481.82 531.203 481.873 530.27 482.18C529.337 482.487 528.87 483.127 528.87 484.1C528.87 484.527 528.99 484.86 529.23 485.1C529.483 485.34 529.803 485.5 530.19 485.58C530.59 485.66 531.023 485.673 531.49 485.62C531.957 485.567 532.417 485.453 532.87 485.28C533.323 485.107 533.717 484.893 534.05 484.64Z" fill="black"/>
<rect x="462" y="527" width="100" height="128" fill="#D9D9D9"/>
<path d="M498.48 674H496.28L489.58 661.82V673.98H488V659.98H490.32L496.9 672.02V659.98H498.48V674ZM503.56 674.1C502.627 674.073 501.847 673.813 501.22 673.32C500.594 672.813 500.28 672.08 500.28 671.12C500.28 670.12 500.574 669.34 501.16 668.78C501.747 668.207 502.547 667.84 503.56 667.68C504.574 667.52 505.707 667.553 506.96 667.78V667.06C506.96 666.593 506.814 666.227 506.52 665.96C506.227 665.68 505.847 665.493 505.38 665.4C504.927 665.307 504.447 665.3 503.94 665.38C503.447 665.447 502.98 665.6 502.54 665.84C502.1 666.067 501.76 666.367 501.52 666.74L500.54 665.7C500.954 665.193 501.454 664.8 502.04 664.52C502.64 664.24 503.26 664.06 503.9 663.98C504.54 663.9 505.16 663.92 505.76 664.04C506.36 664.16 506.887 664.38 507.34 664.7C507.78 664.967 508.08 665.313 508.24 665.74C508.414 666.153 508.514 666.633 508.54 667.18C508.567 667.727 508.58 668.313 508.58 668.94V674H506.98V673.06C506.487 673.42 505.94 673.687 505.34 673.86C504.74 674.033 504.147 674.113 503.56 674.1ZM506.94 671.64V669.02C505.354 668.82 504.094 668.873 503.16 669.18C502.227 669.487 501.76 670.127 501.76 671.1C501.76 671.527 501.88 671.86 502.12 672.1C502.374 672.34 502.694 672.5 503.08 672.58C503.48 672.66 503.914 672.673 504.38 672.62C504.847 672.567 505.307 672.453 505.76 672.28C506.214 672.107 506.607 671.893 506.94 671.64ZM525.798 674H524.238V668.1C524.238 667.193 523.998 666.52 523.518 666.08C523.051 665.64 522.445 665.42 521.698 665.42C520.925 665.42 520.285 665.64 519.778 666.08C519.271 666.52 519.018 667.193 519.018 668.1V674H517.478V668.1C517.478 667.167 517.225 666.487 516.718 666.06C516.211 665.633 515.578 665.42 514.818 665.42C514.418 665.42 514.011 665.513 513.598 665.7C513.185 665.887 512.838 666.18 512.558 666.58C512.291 666.967 512.158 667.473 512.158 668.1V674H510.578V664H512.158V665.02C512.491 664.647 512.891 664.367 513.358 664.18C513.825 663.993 514.311 663.893 514.818 663.88C515.471 663.88 516.111 664.013 516.738 664.28C517.378 664.533 517.911 664.94 518.338 665.5C518.698 664.953 519.191 664.553 519.818 664.3C520.445 664.033 521.098 663.9 521.778 663.9C522.485 663.9 523.145 664.067 523.758 664.4C524.371 664.72 524.865 665.193 525.238 665.82C525.611 666.447 525.798 667.207 525.798 668.1V674ZM530.67 674.1C529.737 674.073 528.957 673.813 528.33 673.32C527.703 672.813 527.39 672.08 527.39 671.12C527.39 670.12 527.683 669.34 528.27 668.78C528.857 668.207 529.657 667.84 530.67 667.68C531.683 667.52 532.817 667.553 534.07 667.78V667.06C534.07 666.593 533.923 666.227 533.63 665.96C533.337 665.68 532.957 665.493 532.49 665.4C532.037 665.307 531.557 665.3 531.05 665.38C530.557 665.447 530.09 665.6 529.65 665.84C529.21 666.067 528.87 666.367 528.63 666.74L527.65 665.7C528.063 665.193 528.563 664.8 529.15 664.52C529.75 664.24 530.37 664.06 531.01 663.98C531.65 663.9 532.27 663.92 532.87 664.04C533.47 664.16 533.997 664.38 534.45 664.7C534.89 664.967 535.19 665.313 535.35 665.74C535.523 666.153 535.623 666.633 535.65 667.18C535.677 667.727 535.69 668.313 535.69 668.94V674H534.09V673.06C533.597 673.42 533.05 673.687 532.45 673.86C531.85 674.033 531.257 674.113 530.67 674.1ZM534.05 671.64V669.02C532.463 668.82 531.203 668.873 530.27 669.18C529.337 669.487 528.87 670.127 528.87 671.1C528.87 671.527 528.99 671.86 529.23 672.1C529.483 672.34 529.803 672.5 530.19 672.58C530.59 672.66 531.023 672.673 531.49 672.62C531.957 672.567 532.417 672.453 532.87 672.28C533.323 672.107 533.717 671.893 534.05 671.64Z" fill="black"/>
<rect y="153" width="100" height="128" fill="#D9D9D9"/>
<path d="M36.48 300H34.28L27.58 287.82V299.98H26V285.98H28.32L34.9 298.02V285.98H36.48V300ZM41.5605 300.1C40.6271 300.073 39.8471 299.813 39.2205 299.32C38.5938 298.813 38.2805 298.08 38.2805 297.12C38.2805 296.12 38.5738 295.34 39.1605 294.78C39.7471 294.207 40.5471 293.84 41.5605 293.68C42.5738 293.52 43.7071 293.553 44.9605 293.78V293.06C44.9605 292.593 44.8138 292.227 44.5205 291.96C44.2271 291.68 43.8471 291.493 43.3805 291.4C42.9271 291.307 42.4471 291.3 41.9405 291.38C41.4471 291.447 40.9805 291.6 40.5405 291.84C40.1005 292.067 39.7605 292.367 39.5205 292.74L38.5405 291.7C38.9538 291.193 39.4538 290.8 40.0405 290.52C40.6405 290.24 41.2605 290.06 41.9005 289.98C42.5405 289.9 43.1605 289.92 43.7605 290.04C44.3605 290.16 44.8871 290.38 45.3405 290.7C45.7805 290.967 46.0805 291.313 46.2405 291.74C46.4138 292.153 46.5138 292.633 46.5405 293.18C46.5671 293.727 46.5805 294.313 46.5805 294.94V300H44.9805V299.06C44.4871 299.42 43.9405 299.687 43.3405 299.86C42.7405 300.033 42.1471 300.113 41.5605 300.1ZM44.9405 297.64V295.02C43.3538 294.82 42.0938 294.873 41.1605 295.18C40.2271 295.487 39.7605 296.127 39.7605 297.1C39.7605 297.527 39.8805 297.86 40.1205 298.1C40.3738 298.34 40.6938 298.5 41.0805 298.58C41.4805 298.66 41.9138 298.673 42.3805 298.62C42.8471 298.567 43.3071 298.453 43.7605 298.28C44.2138 298.107 44.6071 297.893 44.9405 297.64ZM63.7981 300H62.2381V294.1C62.2381 293.193 61.9981 292.52 61.5181 292.08C61.0515 291.64 60.4448 291.42 59.6981 291.42C58.9248 291.42 58.2848 291.64 57.7781 292.08C57.2715 292.52 57.0181 293.193 57.0181 294.1V300H55.4781V294.1C55.4781 293.167 55.2248 292.487 54.7181 292.06C54.2115 291.633 53.5781 291.42 52.8181 291.42C52.4181 291.42 52.0115 291.513 51.5981 291.7C51.1848 291.887 50.8381 292.18 50.5581 292.58C50.2915 292.967 50.1581 293.473 50.1581 294.1V300H48.5781V290H50.1581V291.02C50.4915 290.647 50.8915 290.367 51.3581 290.18C51.8248 289.993 52.3115 289.893 52.8181 289.88C53.4715 289.88 54.1115 290.013 54.7381 290.28C55.3781 290.533 55.9115 290.94 56.3381 291.5C56.6981 290.953 57.1915 290.553 57.8181 290.3C58.4448 290.033 59.0981 289.9 59.7781 289.9C60.4848 289.9 61.1448 290.067 61.7581 290.4C62.3715 290.72 62.8648 291.193 63.2381 291.82C63.6115 292.447 63.7981 293.207 63.7981 294.1V300ZM68.6698 300.1C67.7365 300.073 66.9565 299.813 66.3298 299.32C65.7032 298.813 65.3898 298.08 65.3898 297.12C65.3898 296.12 65.6832 295.34 66.2698 294.78C66.8565 294.207 67.6565 293.84 68.6698 293.68C69.6832 293.52 70.8165 293.553 72.0698 293.78V293.06C72.0698 292.593 71.9232 292.227 71.6298 291.96C71.3365 291.68 70.9565 291.493 70.4898 291.4C70.0365 291.307 69.5565 291.3 69.0498 291.38C68.5565 291.447 68.0898 291.6 67.6498 291.84C67.2098 292.067 66.8698 292.367 66.6298 292.74L65.6498 291.7C66.0632 291.193 66.5632 290.8 67.1498 290.52C67.7498 290.24 68.3698 290.06 69.0098 289.98C69.6498 289.9 70.2698 289.92 70.8698 290.04C71.4698 290.16 71.9965 290.38 72.4498 290.7C72.8898 290.967 73.1898 291.313 73.3498 291.74C73.5232 292.153 73.6232 292.633 73.6498 293.18C73.6765 293.727 73.6898 294.313 73.6898 294.94V300H72.0898V299.06C71.5965 299.42 71.0498 299.687 70.4498 299.86C69.8498 300.033 69.2565 300.113 68.6698 300.1ZM72.0498 297.64V295.02C70.4632 294.82 69.2032 294.873 68.2698 295.18C67.3365 295.487 66.8698 296.127 66.8698 297.1C66.8698 297.527 66.9898 297.86 67.2298 298.1C67.4832 298.34 67.8032 298.5 68.1898 298.58C68.5898 298.66 69.0232 298.673 69.4898 298.62C69.9565 298.567 70.4165 298.453 70.8698 298.28C71.3232 298.107 71.7165 297.893 72.0498 297.64Z" fill="black"/>
<rect y="340" width="100" height="128" fill="#D9D9D9"/>
<path d="M36.48 487H34.28L27.58 474.82V486.98H26V472.98H28.32L34.9 485.02V472.98H36.48V487ZM41.5605 487.1C40.6271 487.073 39.8471 486.813 39.2205 486.32C38.5938 485.813 38.2805 485.08 38.2805 484.12C38.2805 483.12 38.5738 482.34 39.1605 481.78C39.7471 481.207 40.5471 480.84 41.5605 480.68C42.5738 480.52 43.7071 480.553 44.9605 480.78V480.06C44.9605 479.593 44.8138 479.227 44.5205 478.96C44.2271 478.68 43.8471 478.493 43.3805 478.4C42.9271 478.307 42.4471 478.3 41.9405 478.38C41.4471 478.447 40.9805 478.6 40.5405 478.84C40.1005 479.067 39.7605 479.367 39.5205 479.74L38.5405 478.7C38.9538 478.193 39.4538 477.8 40.0405 477.52C40.6405 477.24 41.2605 477.06 41.9005 476.98C42.5405 476.9 43.1605 476.92 43.7605 477.04C44.3605 477.16 44.8871 477.38 45.3405 477.7C45.7805 477.967 46.0805 478.313 46.2405 478.74C46.4138 479.153 46.5138 479.633 46.5405 480.18C46.5671 480.727 46.5805 481.313 46.5805 481.94V487H44.9805V486.06C44.4871 486.42 43.9405 486.687 43.3405 486.86C42.7405 487.033 42.1471 487.113 41.5605 487.1ZM44.9405 484.64V482.02C43.3538 481.82 42.0938 481.873 41.1605 482.18C40.2271 482.487 39.7605 483.127 39.7605 484.1C39.7605 484.527 39.8805 484.86 40.1205 485.1C40.3738 485.34 40.6938 485.5 41.0805 485.58C41.4805 485.66 41.9138 485.673 42.3805 485.62C42.8471 485.567 43.3071 485.453 43.7605 485.28C44.2138 485.107 44.6071 484.893 44.9405 484.64ZM63.7981 487H62.2381V481.1C62.2381 480.193 61.9981 479.52 61.5181 479.08C61.0515 478.64 60.4448 478.42 59.6981 478.42C58.9248 478.42 58.2848 478.64 57.7781 479.08C57.2715 479.52 57.0181 480.193 57.0181 481.1V487H55.4781V481.1C55.4781 480.167 55.2248 479.487 54.7181 479.06C54.2115 478.633 53.5781 478.42 52.8181 478.42C52.4181 478.42 52.0115 478.513 51.5981 478.7C51.1848 478.887 50.8381 479.18 50.5581 479.58C50.2915 479.967 50.1581 480.473 50.1581 481.1V487H48.5781V477H50.1581V478.02C50.4915 477.647 50.8915 477.367 51.3581 477.18C51.8248 476.993 52.3115 476.893 52.8181 476.88C53.4715 476.88 54.1115 477.013 54.7381 477.28C55.3781 477.533 55.9115 477.94 56.3381 478.5C56.6981 477.953 57.1915 477.553 57.8181 477.3C58.4448 477.033 59.0981 476.9 59.7781 476.9C60.4848 476.9 61.1448 477.067 61.7581 477.4C62.3715 477.72 62.8648 478.193 63.2381 478.82C63.6115 479.447 63.7981 480.207 63.7981 481.1V487ZM68.6698 487.1C67.7365 487.073 66.9565 486.813 66.3298 486.32C65.7032 485.813 65.3898 485.08 65.3898 484.12C65.3898 483.12 65.6832 482.34 66.2698 481.78C66.8565 481.207 67.6565 480.84 68.6698 480.68C69.6832 480.52 70.8165 480.553 72.0698 480.78V480.06C72.0698 479.593 71.9232 479.227 71.6298 478.96C71.3365 478.68 70.9565 478.493 70.4898 478.4C70.0365 478.307 69.5565 478.3 69.0498 478.38C68.5565 478.447 68.0898 478.6 67.6498 478.84C67.2098 479.067 66.8698 479.367 66.6298 479.74L65.6498 478.7C66.0632 478.193 66.5632 477.8 67.1498 477.52C67.7498 477.24 68.3698 477.06 69.0098 476.98C69.6498 476.9 70.2698 476.92 70.8698 477.04C71.4698 477.16 71.9965 477.38 72.4498 477.7C72.8898 477.967 73.1898 478.313 73.3498 478.74C73.5232 479.153 73.6232 479.633 73.6498 480.18C73.6765 480.727 73.6898 481.313 73.6898 481.94V487H72.0898V486.06C71.5965 486.42 71.0498 486.687 70.4498 486.86C69.8498 487.033 69.2565 487.113 68.6698 487.1ZM72.0498 484.64V482.02C70.4632 481.82 69.2032 481.873 68.2698 482.18C67.3365 482.487 66.8698 483.127 66.8698 484.1C66.8698 484.527 66.9898 484.86 67.2298 485.1C67.4832 485.34 67.8032 485.5 68.1898 485.58C68.5898 485.66 69.0232 485.673 69.4898 485.62C69.9565 485.567 70.4165 485.453 70.8698 485.28C71.3232 485.107 71.7165 484.893 72.0498 484.64Z" fill="black"/>
<rect y="527" width="100" height="128" fill="#D9D9D9"/>
<path d="M36.48 674H34.28L27.58 661.82V673.98H26V659.98H28.32L34.9 672.02V659.98H36.48V674ZM41.5605 674.1C40.6271 674.073 39.8471 673.813 39.2205 673.32C38.5938 672.813 38.2805 672.08 38.2805 671.12C38.2805 670.12 38.5738 669.34 39.1605 668.78C39.7471 668.207 40.5471 667.84 41.5605 667.68C42.5738 667.52 43.7071 667.553 44.9605 667.78V667.06C44.9605 666.593 44.8138 666.227 44.5205 665.96C44.2271 665.68 43.8471 665.493 43.3805 665.4C42.9271 665.307 42.4471 665.3 41.9405 665.38C41.4471 665.447 40.9805 665.6 40.5405 665.84C40.1005 666.067 39.7605 666.367 39.5205 666.74L38.5405 665.7C38.9538 665.193 39.4538 664.8 40.0405 664.52C40.6405 664.24 41.2605 664.06 41.9005 663.98C42.5405 663.9 43.1605 663.92 43.7605 664.04C44.3605 664.16 44.8871 664.38 45.3405 664.7C45.7805 664.967 46.0805 665.313 46.2405 665.74C46.4138 666.153 46.5138 666.633 46.5405 667.18C46.5671 667.727 46.5805 668.313 46.5805 668.94V674H44.9805V673.06C44.4871 673.42 43.9405 673.687 43.3405 673.86C42.7405 674.033 42.1471 674.113 41.5605 674.1ZM44.9405 671.64V669.02C43.3538 668.82 42.0938 668.873 41.1605 669.18C40.2271 669.487 39.7605 670.127 39.7605 671.1C39.7605 671.527 39.8805 671.86 40.1205 672.1C40.3738 672.34 40.6938 672.5 41.0805 672.58C41.4805 672.66 41.9138 672.673 42.3805 672.62C42.8471 672.567 43.3071 672.453 43.7605 672.28C44.2138 672.107 44.6071 671.893 44.9405 671.64ZM63.7981 674H62.2381V668.1C62.2381 667.193 61.9981 666.52 61.5181 666.08C61.0515 665.64 60.4448 665.42 59.6981 665.42C58.9248 665.42 58.2848 665.64 57.7781 666.08C57.2715 666.52 57.0181 667.193 57.0181 668.1V674H55.4781V668.1C55.4781 667.167 55.2248 666.487 54.7181 666.06C54.2115 665.633 53.5781 665.42 52.8181 665.42C52.4181 665.42 52.0115 665.513 51.5981 665.7C51.1848 665.887 50.8381 666.18 50.5581 666.58C50.2915 666.967 50.1581 667.473 50.1581 668.1V674H48.5781V664H50.1581V665.02C50.4915 664.647 50.8915 664.367 51.3581 664.18C51.8248 663.993 52.3115 663.893 52.8181 663.88C53.4715 663.88 54.1115 664.013 54.7381 664.28C55.3781 664.533 55.9115 664.94 56.3381 665.5C56.6981 664.953 57.1915 664.553 57.8181 664.3C58.4448 664.033 59.0981 663.9 59.7781 663.9C60.4848 663.9 61.1448 664.067 61.7581 664.4C62.3715 664.72 62.8648 665.193 63.2381 665.82C63.6115 666.447 63.7981 667.207 63.7981 668.1V674ZM68.6698 674.1C67.7365 674.073 66.9565 673.813 66.3298 673.32C65.7032 672.813 65.3898 672.08 65.3898 671.12C65.3898 670.12 65.6832 669.34 66.2698 668.78C66.8565 668.207 67.6565 667.84 68.6698 667.68C69.6832 667.52 70.8165 667.553 72.0698 667.78V667.06C72.0698 666.593 71.9232 666.227 71.6298 665.96C71.3365 665.68 70.9565 665.493 70.4898 665.4C70.0365 665.307 69.5565 665.3 69.0498 665.38C68.5565 665.447 68.0898 665.6 67.6498 665.84C67.2098 666.067 66.8698 666.367 66.6298 666.74L65.6498 665.7C66.0632 665.193 66.5632 664.8 67.1498 664.52C67.7498 664.24 68.3698 664.06 69.0098 663.98C69.6498 663.9 70.2698 663.92 70.8698 664.04C71.4698 664.16 71.9965 664.38 72.4498 664.7C72.8898 664.967 73.1898 665.313 73.3498 665.74C73.5232 666.153 73.6232 666.633 73.6498 667.18C73.6765 667.727 73.6898 668.313 73.6898 668.94V674H72.0898V673.06C71.5965 673.42 71.0498 673.687 70.4498 673.86C69.8498 674.033 69.2565 674.113 68.6698 674.1ZM72.0498 671.64V669.02C70.4632 668.82 69.2032 668.873 68.2698 669.18C67.3365 669.487 66.8698 670.127 66.8698 671.1C66.8698 671.527 66.9898 671.86 67.2298 672.1C67.4832 672.34 67.8032 672.5 68.1898 672.58C68.5898 672.66 69.0232 672.673 69.4898 672.62C69.9565 672.567 70.4165 672.453 70.8698 672.28C71.3232 672.107 71.7165 671.893 72.0498 671.64Z" fill="black"/>
<rect x="584" y="153" width="100" height="128" fill="#D9D9D9"/>
<path d="M620.48 300H618.28L611.58 287.82V299.98H610V285.98H612.32L618.9 298.02V285.98H620.48V300ZM625.56 300.1C624.627 300.073 623.847 299.813 623.22 299.32C622.594 298.813 622.28 298.08 622.28 297.12C622.28 296.12 622.574 295.34 623.16 294.78C623.747 294.207 624.547 293.84 625.56 293.68C626.574 293.52 627.707 293.553 628.96 293.78V293.06C628.96 292.593 628.814 292.227 628.52 291.96C628.227 291.68 627.847 291.493 627.38 291.4C626.927 291.307 626.447 291.3 625.94 291.38C625.447 291.447 624.98 291.6 624.54 291.84C624.1 292.067 623.76 292.367 623.52 292.74L622.54 291.7C622.954 291.193 623.454 290.8 624.04 290.52C624.64 290.24 625.26 290.06 625.9 289.98C626.54 289.9 627.16 289.92 627.76 290.04C628.36 290.16 628.887 290.38 629.34 290.7C629.78 290.967 630.08 291.313 630.24 291.74C630.414 292.153 630.514 292.633 630.54 293.18C630.567 293.727 630.58 294.313 630.58 294.94V300H628.98V299.06C628.487 299.42 627.94 299.687 627.34 299.86C626.74 300.033 626.147 300.113 625.56 300.1ZM628.94 297.64V295.02C627.354 294.82 626.094 294.873 625.16 295.18C624.227 295.487 623.76 296.127 623.76 297.1C623.76 297.527 623.88 297.86 624.12 298.1C624.374 298.34 624.694 298.5 625.08 298.58C625.48 298.66 625.914 298.673 626.38 298.62C626.847 298.567 627.307 298.453 627.76 298.28C628.214 298.107 628.607 297.893 628.94 297.64ZM647.798 300H646.238V294.1C646.238 293.193 645.998 292.52 645.518 292.08C645.051 291.64 644.445 291.42 643.698 291.42C642.925 291.42 642.285 291.64 641.778 292.08C641.271 292.52 641.018 293.193 641.018 294.1V300H639.478V294.1C639.478 293.167 639.225 292.487 638.718 292.06C638.211 291.633 637.578 291.42 636.818 291.42C636.418 291.42 636.011 291.513 635.598 291.7C635.185 291.887 634.838 292.18 634.558 292.58C634.291 292.967 634.158 293.473 634.158 294.1V300H632.578V290H634.158V291.02C634.491 290.647 634.891 290.367 635.358 290.18C635.825 289.993 636.311 289.893 636.818 289.88C637.471 289.88 638.111 290.013 638.738 290.28C639.378 290.533 639.911 290.94 640.338 291.5C640.698 290.953 641.191 290.553 641.818 290.3C642.445 290.033 643.098 289.9 643.778 289.9C644.485 289.9 645.145 290.067 645.758 290.4C646.371 290.72 646.865 291.193 647.238 291.82C647.611 292.447 647.798 293.207 647.798 294.1V300ZM652.67 300.1C651.737 300.073 650.957 299.813 650.33 299.32C649.703 298.813 649.39 298.08 649.39 297.12C649.39 296.12 649.683 295.34 650.27 294.78C650.857 294.207 651.657 293.84 652.67 293.68C653.683 293.52 654.817 293.553 656.07 293.78V293.06C656.07 292.593 655.923 292.227 655.63 291.96C655.337 291.68 654.957 291.493 654.49 291.4C654.037 291.307 653.557 291.3 653.05 291.38C652.557 291.447 652.09 291.6 651.65 291.84C651.21 292.067 650.87 292.367 650.63 292.74L649.65 291.7C650.063 291.193 650.563 290.8 651.15 290.52C651.75 290.24 652.37 290.06 653.01 289.98C653.65 289.9 654.27 289.92 654.87 290.04C655.47 290.16 655.997 290.38 656.45 290.7C656.89 290.967 657.19 291.313 657.35 291.74C657.523 292.153 657.623 292.633 657.65 293.18C657.677 293.727 657.69 294.313 657.69 294.94V300H656.09V299.06C655.597 299.42 655.05 299.687 654.45 299.86C653.85 300.033 653.257 300.113 652.67 300.1ZM656.05 297.64V295.02C654.463 294.82 653.203 294.873 652.27 295.18C651.337 295.487 650.87 296.127 650.87 297.1C650.87 297.527 650.99 297.86 651.23 298.1C651.483 298.34 651.803 298.5 652.19 298.58C652.59 298.66 653.023 298.673 653.49 298.62C653.957 298.567 654.417 298.453 654.87 298.28C655.323 298.107 655.717 297.893 656.05 297.64Z" fill="black"/>
<rect x="584" y="340" width="100" height="128" fill="#D9D9D9"/>
<path d="M620.48 487H618.28L611.58 474.82V486.98H610V472.98H612.32L618.9 485.02V472.98H620.48V487ZM625.56 487.1C624.627 487.073 623.847 486.813 623.22 486.32C622.594 485.813 622.28 485.08 622.28 484.12C622.28 483.12 622.574 482.34 623.16 481.78C623.747 481.207 624.547 480.84 625.56 480.68C626.574 480.52 627.707 480.553 628.96 480.78V480.06C628.96 479.593 628.814 479.227 628.52 478.96C628.227 478.68 627.847 478.493 627.38 478.4C626.927 478.307 626.447 478.3 625.94 478.38C625.447 478.447 624.98 478.6 624.54 478.84C624.1 479.067 623.76 479.367 623.52 479.74L622.54 478.7C622.954 478.193 623.454 477.8 624.04 477.52C624.64 477.24 625.26 477.06 625.9 476.98C626.54 476.9 627.16 476.92 627.76 477.04C628.36 477.16 628.887 477.38 629.34 477.7C629.78 477.967 630.08 478.313 630.24 478.74C630.414 479.153 630.514 479.633 630.54 480.18C630.567 480.727 630.58 481.313 630.58 481.94V487H628.98V486.06C628.487 486.42 627.94 486.687 627.34 486.86C626.74 487.033 626.147 487.113 625.56 487.1ZM628.94 484.64V482.02C627.354 481.82 626.094 481.873 625.16 482.18C624.227 482.487 623.76 483.127 623.76 484.1C623.76 484.527 623.88 484.86 624.12 485.1C624.374 485.34 624.694 485.5 625.08 485.58C625.48 485.66 625.914 485.673 626.38 485.62C626.847 485.567 627.307 485.453 627.76 485.28C628.214 485.107 628.607 484.893 628.94 484.64ZM647.798 487H646.238V481.1C646.238 480.193 645.998 479.52 645.518 479.08C645.051 478.64 644.445 478.42 643.698 478.42C642.925 478.42 642.285 478.64 641.778 479.08C641.271 479.52 641.018 480.193 641.018 481.1V487H639.478V481.1C639.478 480.167 639.225 479.487 638.718 479.06C638.211 478.633 637.578 478.42 636.818 478.42C636.418 478.42 636.011 478.513 635.598 478.7C635.185 478.887 634.838 479.18 634.558 479.58C634.291 479.967 634.158 480.473 634.158 481.1V487H632.578V477H634.158V478.02C634.491 477.647 634.891 477.367 635.358 477.18C635.825 476.993 636.311 476.893 636.818 476.88C637.471 476.88 638.111 477.013 638.738 477.28C639.378 477.533 639.911 477.94 640.338 478.5C640.698 477.953 641.191 477.553 641.818 477.3C642.445 477.033 643.098 476.9 643.778 476.9C644.485 476.9 645.145 477.067 645.758 477.4C646.371 477.72 646.865 478.193 647.238 478.82C647.611 479.447 647.798 480.207 647.798 481.1V487ZM652.67 487.1C651.737 487.073 650.957 486.813 650.33 486.32C649.703 485.813 649.39 485.08 649.39 484.12C649.39 483.12 649.683 482.34 650.27 481.78C650.857 481.207 651.657 480.84 652.67 480.68C653.683 480.52 654.817 480.553 656.07 480.78V480.06C656.07 479.593 655.923 479.227 655.63 478.96C655.337 478.68 654.957 478.493 654.49 478.4C654.037 478.307 653.557 478.3 653.05 478.38C652.557 478.447 652.09 478.6 651.65 478.84C651.21 479.067 650.87 479.367 650.63 479.74L649.65 478.7C650.063 478.193 650.563 477.8 651.15 477.52C651.75 477.24 652.37 477.06 653.01 476.98C653.65 476.9 654.27 476.92 654.87 477.04C655.47 477.16 655.997 477.38 656.45 477.7C656.89 477.967 657.19 478.313 657.35 478.74C657.523 479.153 657.623 479.633 657.65 480.18C657.677 480.727 657.69 481.313 657.69 481.94V487H656.09V486.06C655.597 486.42 655.05 486.687 654.45 486.86C653.85 487.033 653.257 487.113 652.67 487.1ZM656.05 484.64V482.02C654.463 481.82 653.203 481.873 652.27 482.18C651.337 482.487 650.87 483.127 650.87 484.1C650.87 484.527 650.99 484.86 651.23 485.1C651.483 485.34 651.803 485.5 652.19 485.58C652.59 485.66 653.023 485.673 653.49 485.62C653.957 485.567 654.417 485.453 654.87 485.28C655.323 485.107 655.717 484.893 656.05 484.64Z" fill="black"/>
<rect x="584" y="527" width="100" height="128" fill="#D9D9D9"/>
<path d="M620.48 674H618.28L611.58 661.82V673.98H610V659.98H612.32L618.9 672.02V659.98H620.48V674ZM625.56 674.1C624.627 674.073 623.847 673.813 623.22 673.32C622.594 672.813 622.28 672.08 622.28 671.12C622.28 670.12 622.574 669.34 623.16 668.78C623.747 668.207 624.547 667.84 625.56 667.68C626.574 667.52 627.707 667.553 628.96 667.78V667.06C628.96 666.593 628.814 666.227 628.52 665.96C628.227 665.68 627.847 665.493 627.38 665.4C626.927 665.307 626.447 665.3 625.94 665.38C625.447 665.447 624.98 665.6 624.54 665.84C624.1 666.067 623.76 666.367 623.52 666.74L622.54 665.7C622.954 665.193 623.454 664.8 624.04 664.52C624.64 664.24 625.26 664.06 625.9 663.98C626.54 663.9 627.16 663.92 627.76 664.04C628.36 664.16 628.887 664.38 629.34 664.7C629.78 664.967 630.08 665.313 630.24 665.74C630.414 666.153 630.514 666.633 630.54 667.18C630.567 667.727 630.58 668.313 630.58 668.94V674H628.98V673.06C628.487 673.42 627.94 673.687 627.34 673.86C626.74 674.033 626.147 674.113 625.56 674.1ZM628.94 671.64V669.02C627.354 668.82 626.094 668.873 625.16 669.18C624.227 669.487 623.76 670.127 623.76 671.1C623.76 671.527 623.88 671.86 624.12 672.1C624.374 672.34 624.694 672.5 625.08 672.58C625.48 672.66 625.914 672.673 626.38 672.62C626.847 672.567 627.307 672.453 627.76 672.28C628.214 672.107 628.607 671.893 628.94 671.64ZM647.798 674H646.238V668.1C646.238 667.193 645.998 666.52 645.518 666.08C645.051 665.64 644.445 665.42 643.698 665.42C642.925 665.42 642.285 665.64 641.778 666.08C641.271 666.52 641.018 667.193 641.018 668.1V674H639.478V668.1C639.478 667.167 639.225 666.487 638.718 666.06C638.211 665.633 637.578 665.42 636.818 665.42C636.418 665.42 636.011 665.513 635.598 665.7C635.185 665.887 634.838 666.18 634.558 666.58C634.291 666.967 634.158 667.473 634.158 668.1V674H632.578V664H634.158V665.02C634.491 664.647 634.891 664.367 635.358 664.18C635.825 663.993 636.311 663.893 636.818 663.88C637.471 663.88 638.111 664.013 638.738 664.28C639.378 664.533 639.911 664.94 640.338 665.5C640.698 664.953 641.191 664.553 641.818 664.3C642.445 664.033 643.098 663.9 643.778 663.9C644.485 663.9 645.145 664.067 645.758 664.4C646.371 664.72 646.865 665.193 647.238 665.82C647.611 666.447 647.798 667.207 647.798 668.1V674ZM652.67 674.1C651.737 674.073 650.957 673.813 650.33 673.32C649.703 672.813 649.39 672.08 649.39 671.12C649.39 670.12 649.683 669.34 650.27 668.78C650.857 668.207 651.657 667.84 652.67 667.68C653.683 667.52 654.817 667.553 656.07 667.78V667.06C656.07 666.593 655.923 666.227 655.63 665.96C655.337 665.68 654.957 665.493 654.49 665.4C654.037 665.307 653.557 665.3 653.05 665.38C652.557 665.447 652.09 665.6 651.65 665.84C651.21 666.067 650.87 666.367 650.63 666.74L649.65 665.7C650.063 665.193 650.563 664.8 651.15 664.52C651.75 664.24 652.37 664.06 653.01 663.98C653.65 663.9 654.27 663.92 654.87 664.04C655.47 664.16 655.997 664.38 656.45 664.7C656.89 664.967 657.19 665.313 657.35 665.74C657.523 666.153 657.623 666.633 657.65 667.18C657.677 667.727 657.69 668.313 657.69 668.94V674H656.09V673.06C655.597 673.42 655.05 673.687 654.45 673.86C653.85 674.033 653.257 674.113 652.67 674.1ZM656.05 671.64V669.02C654.463 668.82 653.203 668.873 652.27 669.18C651.337 669.487 650.87 670.127 650.87 671.1C650.87 671.527 650.99 671.86 651.23 672.1C651.483 672.34 651.803 672.5 652.19 672.58C652.59 672.66 653.023 672.673 653.49 672.62C653.957 672.567 654.417 672.453 654.87 672.28C655.323 672.107 655.717 671.893 656.05 671.64Z" fill="black"/>
</svg>
